<?xml version="1.0" encoding="UTF-8"?> <svg xmlns="http://www.w3.org/2000/svg" xmlns:xlink="http://www.w3.org/1999/xlink" version="1.1" id="Layer_1" x="0px" y="0px" width="928px" height="451px" viewBox="0 0 928 451" xml:space="preserve"> <g> <defs> <rect id="SVGID_1_" width="928" height="451"></rect> </defs> <clipPath id="SVGID_2_"> <use xlink:href="#SVGID_1_" overflow="visible"></use> </clipPath> <path clip-path="url(#SVGID_2_)" fill="#EC1C24" d="M170.42,20.64c19.13-6.62,35.37,10.21,40.04,27.52 c9.89,29.7,20.98,59.02,30.9,88.72c32.55,85.23,2.05,106.47-82.4,98.14c-35.28-2.46-70.59-5.05-105.97-6.38 c-5.85-0.2-12.05,0.48-17.45-2.27c-17.09-7.31-15.34-30.78,4.49-31.78c17.33-0.32,34.69,0.22,51.99-1.06 c31.47-2.69,99.35,0.28,81.87-49.45c-8.03-26.79-19.6-52.49-26.21-79.72C143.07,46.77,153.44,27.05,170.42,20.64"></path> <path clip-path="url(#SVGID_2_)" fill="#62BA46" d="M267.47,23.31c6.32-3.1,14.46,1.85,14.98,8.78c1.44,12.8,1.42,25.75,3.32,38.51 c3.84,19.38,3.25,65.89,33.03,59.44c24.04-5.36,44.81-21.17,69.17-25.59c19.26-3.23,38.77,20.81,23.29,36.7 c-5.64,6.62-14.3,8.88-21.98,12.21c-20.47,8.74-40.82,17.68-61.41,26.14c-34.46,15.37-66.05,14.79-68.07-30.64 c-1.12-20.64-0.69-41.31-0.58-61.97c0.05-15.34-0.3-30.68-0.6-46.01C257.95,33.79,260.52,26.31,267.47,23.31"></path> <path clip-path="url(#SVGID_2_)" fill="#F48120" d="M215.4,249.53c44.98-6.28,47.82,52.72,56.25,83.8 c3.2,14.82,6.42,29.64,10.28,44.32c2.2,11.35,5.27,22.49,7.9,33.74c3.09,10.94-7.02,24.17-18.73,19.46 c-9.71-2.94-17.28-48.78-24.69-61.25c-8.85-22.64-23.08-65.53-54.18-43.46c-23.71,12.23-51.5,45.41-78.23,44.46 c-16.93-1.22-32.47-18.39-23.47-35.11c5.2-10.24,15.66-15.92,24.52-22.55c10.41-6.75,19.86-14.81,30.06-21.85 C167.68,276.21,188.7,256.46,215.4,249.53"></path> <path clip-path="url(#SVGID_2_)" fill="#EC1C24" d="M156.2,148.39c0,13.46-10.91,24.37-24.37,24.37 c-13.46,0-24.37-10.91-24.37-24.37s10.91-24.37,24.37-24.37C145.29,124.01,156.2,134.93,156.2,148.39"></path> <path clip-path="url(#SVGID_2_)" fill="#62BA46" d="M338.82,98.04c0,9.8-7.95,17.75-17.75,17.75c-9.8,0-17.75-7.95-17.75-17.75 c0-9.8,7.94-17.75,17.75-17.75C330.88,80.3,338.82,88.24,338.82,98.04"></path> <path clip-path="url(#SVGID_2_)" fill="#F48120" d="M224.32,359.21c0,11.19-9.07,20.27-20.27,20.27s-20.27-9.07-20.27-20.27 s9.07-20.27,20.27-20.27S224.32,348.01,224.32,359.21"></path> <path clip-path="url(#SVGID_2_)" fill="#333333" d="M261.36,201.01c12.57-0.15,25.15-0.02,37.72,0.01 c8.29,0.02,17.05,3.46,21.63,10.66c4.23,5.83,4.73,13.62,3.21,20.47c-0.84,3.79-3.87,6.34-6.47,8.97c2.34,2.27,5.01,4.4,6.38,7.44 c2.93,5.73,2.02,12.62-0.28,18.41c-3.52,8.52-12.46,14.32-21.65,14.35c-13.52,0.06-27.05,0.06-40.57,0 c0.01-4.77,0.01-9.54-0.01-14.31c2.68-0.11,5.35-0.14,8.03-0.19c0.14-17,0.13-34,0.01-51c-2.66-0.09-5.31-0.14-7.96-0.21 C261.3,210.74,261.33,205.87,261.36,201.01 M286.92,215.73c-0.05,5.97-0.03,11.94-0.01,17.91c4.95-0.21,10.05,0.63,14.91-0.53 c6.76-2.99,6.5-13.71,0.05-16.87C296.96,215.16,291.88,215.88,286.92,215.73 M286.9,248.13c0,6.26-0.09,12.52,0.06,18.78 c4.87-0.13,9.77,0.22,14.63-0.17c7.79-2.47,8.2-15.79,0.29-18.35C296.92,247.75,291.88,248.25,286.9,248.13"></path> <path clip-path="url(#SVGID_2_)" fill="#333333" d="M584.54,235.8c8.73-12.25,27.54-15.36,39.69-6.62 c8.78,6.32,11.43,17.77,11.1,28.05c-13.61,0.3-27.23-0.14-40.84,0.24c0.97,6.46,7.12,10.86,13.52,11.19 c6.16,0.32,17.67-3.42,17.67-3.42l5.57,10.67c-8.4,5.68-18.97,8.31-28.97,6.13c-7.78-1.27-15.09-5.96-18.98-12.88 C577.26,259.06,577.69,245.42,584.54,235.8 M595.29,245.91c7.58,0.25,15.17,0.22,22.76,0.01c-0.41-3.07-2.03-6.02-4.86-7.46 C606.6,235.3,596.92,238.13,595.29,245.91"></path> <path clip-path="url(#SVGID_2_)" fill="#333333" d="M525.12,234.13c5.72-4.47,12.26-8.5,19.91-8.53c6.01-0.03,12.32,1.86,16.17,6.6 c2.37,2.64,3.61,6.14,4.15,9.57c1.27,8.05,0.52,25.03,0.52,25.03l7.61,0.13c0,0,0.05,9.62,0.02,14.43 c-8.36-0.05-16.72,0.1-25.07-0.09c0.08-9.98,0.03-19.95,0.04-29.93c-0.01-3.28-0.25-7.16-2.95-9.38 c-5.32-4.38-14.38-1.39-17.01,4.67c-0.25,6.74-0.03,13.49-0.08,20.23c2.64,0.02,5.27,0.04,7.91,0.08c0.1,4.8,0.1,9.6-0.01,14.4 c-8.31,0-16.61,0.08-24.92-0.05c-0.06-10.65,0.14-21.31-0.09-31.96c0.21-3.47-1.84-6.74-4.85-8.36 c-5.25-2.31-12.21-0.36-15.12,4.67c-0.4,7.07-0.06,14.16-0.13,21.24c2.91,0.01,5.82,0.01,8.74,0.04c-0.02,4.8-0.02,9.61,0,14.41 c-11.42,0-22.85,0.13-34.27-0.07c0-4.76-0.02-9.53,0.02-14.29c2.74-0.06,5.48-0.09,8.22-0.12c0.85-8.55,0.24-17.18,0.36-25.76 c-2.69-0.1-8.04-0.17-8.04-0.17l-0.22-14.15c0,0,16.44,0.01,24.67-0.06c0.2,1.45,0.41,2.91,0.62,4.36 c4.98-3.18,10.63-5.56,16.72-5.48C514.7,225.68,521.56,228.38,525.12,234.13"></path> <path clip-path="url(#SVGID_2_)" fill="#333333" d="M721.41,225.77c6.06-0.63,12.43-0.64,18.25,1.77 c5.78,2.39,10.23,7.79,10.97,13.88c1.02,8.43,0.62,16.96,0.6,25.45c2.44,0.02,4.88,0.03,7.33,0.07c0.07,4.79,0.05,9.58,0.03,14.37 c-7.55,0.08-15.11,0.06-22.67,0.02c-0.12-0.69-0.38-2.06-0.5-2.75c-6.1,3.94-13.78,5.33-20.74,2.96 c-9.38-1.92-15.84-12.67-12.3-21.75c1.38-5.07,5.8-8.57,10.5-10.43c7.42-2.52,15.35-1.15,22.96-0.5c-0.23-3.45-1.09-7.59-5-8.5 c-7.38-1.71-15.36-0.72-22.14,2.68c-1.62-3.39-4.91-10.14-4.91-10.14S715.06,226.43,721.41,225.77 M718.95,260.16 c-4,1.79-3.26,8.28,0.82,9.38c5.41,1.49,11.14-0.14,15.75-3.12c0.1-2.5,0.11-4.99,0.09-7.49 C735.6,258.93,724.14,257.83,718.95,260.16"></path> <path clip-path="url(#SVGID_2_)" fill="#333333" d="M794.91,231.22c7.17-4.9,16.38-7.15,24.88-4.41 c7.8,2.51,12.52,10.62,12.31,18.5c0.23,7.19,0.04,14.38,0.14,21.57c2.59,0,5.19,0.02,7.79,0.03c0.03,4.81,0.03,9.63,0.02,14.44 c-8.29,0-16.57,0.03-24.86-0.01c-0.05-10.68,0.16-21.36-0.09-32.03c0.08-3.36-1.75-6.67-4.62-8.39 c-5.52-2.37-13.03-0.09-15.59,5.52c-0.27,6.8-0.1,13.63-0.03,20.45c3.02,0,6.04,0,9.07,0.03c0,4.81-0.01,9.61,0.01,14.42 c-11.43-0.02-22.86,0.11-34.29-0.07c-0.01-4.79-0.07-9.58,0.09-14.37c2.63,0,5.26-0.01,7.91-0.03c0.05-8.62,0.08-17.24-0.02-25.86 c-2.48-0.04-8,0.03-8,0.03l0.18-14.25c0,0,16.55-0.01,24.83-0.08C794.71,228.21,794.79,229.72,794.91,231.22"></path> <path clip-path="url(#SVGID_2_)" fill="#333333" d="M643.04,226.74c7.83-0.03,15.67,0.04,23.51-0.05c0.38,1.1,0.78,2.21,1.18,3.31 c7.59-4.64,25.1-3.14,25.1-3.14l-0.08,19.34l-14.27,0.03c0,0-0.07-3.58-0.1-5.37c-3,0.21-6.35-0.01-8.83,2.11 c-1.87,1.59-2.17,4.14-2.21,6.39c-0.11,5.84,0.01,11.68,0.02,17.52c3.74,0.01,7.48,0,11.23,0.05c0.06,4.79,0.03,14.38,0.03,14.38 s-23.79,0.03-35.69,0.04c-0.01-4.82-0.03-9.63,0.03-14.44c2.67-0.02,5.34-0.03,8.02-0.01c0.04-8.63,0.05-17.27-0.01-25.9 c-2.64-0.02-5.28-0.03-7.91-0.01C642.88,236.24,642.89,231.49,643.04,226.74"></path> <path clip-path="url(#SVGID_2_)" fill="#333333" d="M654.49,316.03c20.1-0.08,40.2-0.1,60.29,0.01 c-0.26,5.57-0.33,16.75-0.33,16.75s-26.22,31.19-39.13,46.95c7.42,0.51,14.87,0.12,22.3,0.23c-0.01-4.02-0.02-8.03,0-12.05 c5.72-0.06,11.44-0.11,17.16,0.04c-0.08,9.23-0.05,18.47-0.02,27.71c-20.13,0.1-40.26,0.16-60.39-0.03 c0.13-5.33,0.15-15.99,0.15-15.99s27.52-34.11,38.13-47.77c-7.11-0.28-14.25-0.21-21.36-0.04c0.04,4.03,0.09,8.07-0.09,12.1 c-5.59,0.08-11.19,0.16-16.77-0.06C654.5,334.6,654.38,325.31,654.49,316.03"></path> <path clip-path="url(#SVGID_2_)" fill="#333333" d="M788.13,341.36c7.99-0.02,15.99-0.04,23.99,0.02c0.09,1.26,0.2,2.51,0.31,3.78 c7.35-5.33,16.77-3.57,25.24-3.73c-0.02,6.53,0.01,13.07-0.02,19.6c-4.74,0.03-9.49,0-14.23,0.03c-0.11-1.82-0.2-3.62-0.31-5.43 c-4.25-0.5-9.93,0.97-10.62,5.92c-0.33,6.54-0.03,13.1-0.12,19.65c3.73,0.29,7.48,0.31,11.23,0.36c-0.03,4.68-0.03,9.36,0.01,14.05 c-11.83,0.28-23.67,0.09-35.5,0.1c0.03-4.74,0.01-9.48,0.03-14.22c2.65,0,5.3-0.01,7.96-0.02c0.05-8.58,0.08-17.15-0.02-25.72 c-2.63,0-5.25-0.01-7.87-0.02C788.09,350.94,788.14,346.15,788.13,341.36"></path> <path clip-path="url(#SVGID_2_)" fill="#333333" d="M904.02,274.36c-0.06-15.87,0.05-31.74-0.06-47.62 c-5.26-0.09-10.54,0.02-15.8,0.11v0.78c-4.81-1.99-12.73-4.47-23.26-0.77c-7.69,2.7-13.79,9.09-16.57,16.7 c-2.96,9.06-1.65,19.63,4.34,27.2c8.06,10.58,23.57,13.6,35.42,7.97c-0.33,3.13-0.48,6.58-2.65,9.09 c-3.01,3.61-7.91,4.38-12.43,4.32c-5.83-0.08-16.17-4.65-16.17-4.65c-1.59,3.53-6.01,11.05-6.01,11.05s1.38,1.21,2.21,1.77 c7.27,4.09,15.64,6.08,23.99,5.52c9.75-0.23,20.03-5.24,24.2-14.43C903.93,286.15,904.12,280.13,904.02,274.36 M887.88,260.2 c-3.99,8.4-16.96,9.01-22.26,1.63c-5.71-7.43-1.99-20.51,7.9-21.82c5.54-1.27,11.83,1.3,14.35,6.51 C888.26,251.05,888.25,255.66,887.88,260.2"></path> <path clip-path="url(#SVGID_2_)" fill="#333333" d="M904.14,388.79c-0.06-15.87,0.05-31.74-0.06-47.62 c-5.26-0.09-10.54,0.02-15.8,0.11v0.78c-4.81-1.99-12.73-4.47-23.26-0.77c-7.69,2.7-13.79,9.09-16.57,16.7 c-2.96,9.06-1.65,19.63,4.34,27.2c8.06,10.58,23.57,13.6,35.42,7.97c-0.33,3.13-0.48,6.58-2.65,9.09 c-3.01,3.61-7.9,4.38-12.43,4.32c-5.83-0.08-16.17-4.65-16.17-4.65c-1.59,3.53-6.01,11.05-6.01,11.05s1.38,1.21,2.21,1.77 c7.27,4.09,15.64,6.08,23.99,5.52c9.75-0.23,20.03-5.24,24.2-14.43C904.05,400.58,904.23,394.56,904.14,388.79 M888,374.63 c-3.99,8.4-16.96,9.01-22.26,1.63c-5.71-7.43-1.99-20.51,7.9-21.82c5.54-1.27,11.83,1.3,14.35,6.51 C888.38,365.48,888.37,370.09,888,374.63"></path> <path clip-path="url(#SVGID_2_)" fill="#333333" d="M361.43,239.92c7.82,0,14.18,6.36,14.18,14.18c0,7.82-6.36,14.18-14.18,14.18 c-7.82,0-14.18-6.36-14.18-14.18C347.25,246.28,353.61,239.92,361.43,239.92 M361.43,224.92c-16.12,0-29.18,13.07-29.18,29.18 c0,16.12,13.06,29.18,29.18,29.18c16.12,0,29.18-13.07,29.18-29.18C390.62,237.98,377.55,224.92,361.43,224.92"></path> <path clip-path="url(#SVGID_2_)" fill="#333333" d="M428.08,239.92c7.82,0,14.18,6.36,14.18,14.18c0,7.82-6.36,14.18-14.18,14.18 s-14.18-6.36-14.18-14.18C413.9,246.28,420.26,239.92,428.08,239.92 M428.08,224.92c-16.12,0-29.18,13.07-29.18,29.18 c0,16.12,13.06,29.18,29.18,29.18s29.18-13.07,29.18-29.18C457.26,237.98,444.2,224.92,428.08,224.92"></path> <path clip-path="url(#SVGID_2_)" fill="#333333" d="M751.47,353.58c7.82,0,14.18,6.36,14.18,14.18c0,7.82-6.36,14.18-14.18,14.18 c-7.82,0-14.18-6.36-14.18-14.18C737.29,359.94,743.65,353.58,751.47,353.58 M751.47,338.58c-16.12,0-29.18,13.07-29.18,29.18 c0,16.12,13.07,29.18,29.18,29.18c16.12,0,29.18-13.07,29.18-29.18C780.65,351.64,767.59,338.58,751.47,338.58"></path> </g> </svg> 