<?xml version="1.0" standalone="no"?>
<!DOCTYPE svg PUBLIC "-//W3C//DTD SVG 20010904//EN"
 "http://www.w3.org/TR/2001/REC-SVG-20010904/DTD/svg10.dtd">
<svg version="1.0" xmlns="http://www.w3.org/2000/svg"
 width="264.000000pt" height="200.000000pt" viewBox="0 0 264.000000 200.000000"
 preserveAspectRatio="xMidYMid meet">

<g transform="translate(0.000000,200.000000) scale(0.100000,-0.100000)"
fill="#000000" stroke="none">
<path d="M922 1683 c-17 -6 -42 -57 -42 -83 0 -12 14 -35 30 -52 30 -29 30
-31 30 -137 l0 -108 75 -62 75 -61 0 -134 0 -133 40 -51 40 -50 0 -97 c0 -95
0 -97 -30 -122 -22 -18 -30 -33 -30 -58 0 -47 8 -64 41 -80 42 -22 67 -18 100
14 40 40 39 83 -1 121 -30 28 -30 29 -30 135 l0 107 -40 48 -40 48 0 266 c0
153 4 266 9 266 5 0 34 -14 65 -32 65 -38 71 -60 26 -100 -24 -21 -30 -34 -30
-65 0 -79 89 -115 145 -58 35 34 33 78 -4 116 -20 20 -31 41 -33 66 -3 36 -8
40 -93 90 -49 29 -98 53 -107 53 -23 0 -28 -23 -31 -162 l-2 -117 -47 37 -48
36 0 98 c0 88 2 98 21 108 31 17 51 73 39 106 -6 15 -18 33 -28 40 -17 13 -75
17 -100 7z m72 -52 c33 -36 -18 -83 -52 -49 -16 16 -15 33 4 52 20 21 27 20
48 -3z m324 -343 c30 -30 -11 -85 -44 -57 -25 21 -11 69 21 69 6 0 16 -5 23
-12z m-88 -757 c0 -26 -25 -44 -50 -36 -25 8 -27 50 -3 64 23 12 53 -4 53 -28z"/>
<path d="M1510 1572 l0 -118 53 -52 53 -52 90 0 c78 0 93 3 109 20 13 14 31
20 61 20 35 0 47 5 69 32 33 39 29 81 -12 117 -21 18 -34 22 -62 17 -51 -8
-76 -37 -74 -89 1 -60 -8 -67 -91 -67 -70 0 -73 1 -109 38 l-37 38 0 88 0 89
98 -6 c53 -3 122 -11 152 -17 73 -16 204 -79 259 -126 46 -40 121 -129 121
-145 0 -5 -15 -9 -34 -9 -25 0 -43 8 -66 31 -27 27 -36 31 -67 26 -19 -4 -44
-14 -54 -23 -38 -35 -32 -100 13 -132 16 -11 18 -28 18 -128 l0 -114 -99 0
c-114 0 -111 3 -111 -97 0 -61 -1 -64 -22 -61 -21 3 -23 9 -28 85 l-5 82 -43
37 -43 36 3 77 3 76 49 3 c60 4 88 -16 80 -58 -6 -29 9 -67 35 -87 28 -22 85
-16 111 12 56 60 9 153 -71 142 -31 -4 -42 0 -60 19 -21 23 -29 25 -104 22
l-80 -3 -3 -116 -3 -116 41 -37 c39 -35 40 -37 40 -106 l0 -70 -53 0 -52 0
-108 -108 -107 -107 0 -108 c0 -62 -4 -107 -10 -107 -22 0 -50 -45 -50 -80 0
-74 92 -109 145 -55 35 34 33 78 -5 117 -29 29 -30 33 -30 121 l0 92 93 93 92
92 233 0 232 0 40 80 c31 61 40 91 40 130 l0 50 55 0 55 0 0 -55 c0 -30 -7
-70 -17 -89 -16 -34 -16 -35 40 -182 30 -82 53 -152 51 -156 -3 -5 -33 -8 -66
-8 l-61 0 7 -33 c3 -17 9 -44 12 -59 5 -23 2 -28 -20 -34 -43 -11 -51 -29 -26
-64 l22 -31 -21 -23 c-16 -17 -21 -35 -21 -72 0 -93 -55 -114 -193 -74 -155
44 -320 150 -364 234 -9 17 -19 60 -22 96 -5 56 -9 65 -26 65 -18 0 -20 -6
-19 -70 0 -50 6 -81 21 -110 54 -103 197 -201 381 -259 178 -56 272 -18 272
108 0 38 4 48 25 62 29 19 31 35 10 68 -15 23 -15 24 16 35 29 10 31 14 26 43
-3 18 -8 41 -12 51 -6 14 -1 17 32 17 47 0 83 23 83 53 -1 12 -25 85 -54 162
-51 133 -53 142 -40 174 19 46 18 239 -1 316 -55 214 -217 378 -439 442 -64
19 -102 23 -212 23 l-134 0 0 -118z m400 -77 c23 -28 -9 -72 -45 -59 -36 14
-24 74 15 74 10 0 23 -7 30 -15z m150 -150 c20 -24 3 -55 -30 -55 -20 0 -31 6
-35 20 -8 25 10 50 35 50 10 0 23 -7 30 -15z m182 -110 c9 -33 17 -75 17 -92
l1 -33 -75 0 -75 0 0 -60 c0 -49 -7 -74 -35 -130 l-35 -70 -100 0 -100 0 0 55
0 55 98 0 c63 0 102 4 110 12 8 8 12 53 12 136 0 121 1 125 28 158 25 31 31
33 82 31 l55 -2 17 -60z m-343 -42 c13 -25 -5 -53 -34 -53 -15 0 -26 7 -30 20
-13 41 43 70 64 33z m-481 -825 c30 -30 -4 -77 -41 -57 -20 11 -23 55 -4 62
21 9 32 8 45 -5z"/>
<path d="M1410 1512 l0 -118 50 -49 50 -49 0 -176 0 -177 -92 -91 -93 -92 -3
81 c-3 78 -2 81 28 109 40 38 41 81 1 121 -33 32 -58 36 -100 14 -33 -16 -41
-33 -41 -80 0 -25 8 -40 30 -58 l30 -26 0 -124 c0 -94 3 -126 13 -130 8 -3 70
49 145 122 l132 126 0 200 0 199 -52 53 -52 53 3 84 c3 99 -3 126 -30 126 -18
0 -19 -8 -19 -118z m-92 -474 c30 -30 -4 -77 -41 -57 -20 11 -23 55 -4 62 21
9 32 8 45 -5z"/>
<path d="M901 1103 c-12 -10 -24 -35 -28 -55 -5 -32 -1 -41 26 -68 29 -30 31
-35 31 -110 0 -74 -2 -80 -30 -108 -38 -39 -40 -83 -5 -117 55 -56 145 -21
145 55 0 35 -28 80 -50 80 -6 0 -10 36 -10 83 0 79 1 84 30 109 61 54 28 148
-52 148 -20 0 -45 -8 -57 -17z m84 -68 c0 -25 -4 -30 -24 -30 -28 0 -47 25
-38 49 5 12 16 16 34 14 24 -3 28 -8 28 -33z m-11 -301 c20 -8 21 -48 2 -63
-33 -28 -74 27 -44 57 14 14 20 14 42 6z"/>
</g>
</svg>
